<svg xmlns="http://www.w3.org/2000/svg" version="1.1" xmlns:xlink="http://www.w3.org/1999/xlink" xmlns:svgjs="http://svgjs.dev/svgjs" width="375" height="667" preserveAspectRatio="none" viewBox="0 0 375 667"><g mask="url(&quot;#SvgjsMask1030&quot;)" fill="none"><rect width="375" height="667" x="0" y="0" fill="rgba(36, 36, 35, 1)"></rect><path d="M3 667L670 0L728.5 0L61.5 667z" fill="url(&quot;#SvgjsLinearGradient1031&quot;)"></path><path d="M129.75 667L796.75 0L931.75 0L264.75 667z" fill="url(&quot;#SvgjsLinearGradient1031&quot;)"></path><path d="M361 667L-306 0L-384 0L283 667z" fill="url(&quot;#SvgjsLinearGradient1032&quot;)"></path><path d="M236.25 667L-430.75 0L-600.25 0L66.75 667z" fill="url(&quot;#SvgjsLinearGradient1032&quot;)"></path><path d="M44.73643697563028 667L375 336.7364369756303L375 667z" fill="url(&quot;#SvgjsLinearGradient1031&quot;)"></path><path d="M0 667L330.2635630243697 667L 0 336.7364369756303z" fill="url(&quot;#SvgjsLinearGradient1032&quot;)"></path></g><defs><mask id="SvgjsMask1030"><rect width="375" height="667" fill="#ffffff"></rect></mask><linearGradient x1="0%" y1="100%" x2="100%" y2="0%" id="SvgjsLinearGradient1031"><stop stop-color="rgba(255, 145, 76, 0.48)" offset="0"></stop><stop stop-opacity="0" stop-color="rgba(255, 145, 76, 0.48)" offset="0.66"></stop></linearGradient><linearGradient x1="100%" y1="100%" x2="0%" y2="0%" id="SvgjsLinearGradient1032"><stop stop-color="rgba(255, 145, 76, 0.48)" offset="0"></stop><stop stop-opacity="0" stop-color="rgba(255, 145, 76, 0.48)" offset="0.66"></stop></linearGradient></defs></svg>