<svg width="82" height="11" viewBox="0 0 82 11" fill="none" xmlns="http://www.w3.org/2000/svg">
<rect width="6.9844" height="7.07883" transform="matrix(1 0 -0.707107 0.707107 5.00549 0)" fill="#FF914C"/>
<rect width="6.9844" height="7.14903" transform="matrix(1 0 0.707107 0.707107 0 5.00549)" fill="#FF914C"/>
<rect width="9.31254" height="7.07883" transform="matrix(1 0 -0.707107 0.707107 13.736 0)" fill="#FF914C"/>
<rect width="9.31254" height="7.14903" transform="matrix(1 0 0.707107 0.707107 8.73053 5.00549)" fill="#FF914C"/>
<rect width="9.31254" height="7.07883" transform="matrix(1 0 -0.707107 0.707107 24.7946 0)" fill="#FF914C"/>
<rect width="9.31254" height="7.14903" transform="matrix(1 0 0.707107 0.707107 19.7891 5.00549)" fill="#FF914C"/>
<rect width="9.31254" height="7.07883" transform="matrix(1 0 -0.707107 0.707107 35.9697 0)" fill="#FF914C"/>
<rect width="9.31254" height="7.14903" transform="matrix(1 0 0.707107 0.707107 30.9642 5.00549)" fill="#FF914C"/>
<rect width="34.922" height="7.07883" transform="matrix(1 0 -0.707107 0.707107 47.0283 0)" fill="#FF914C"/>
<rect width="34.922" height="7.14903" transform="matrix(1 0 0.707107 0.707107 42.0228 5.00549)" fill="#FF914C"/>
<rect width="6.9844" height="7.05407" transform="matrix(1 0 -0.70955 0.704655 5.00519 0)" fill="#FF914C"/>
<rect width="6.9844" height="7.12398" transform="matrix(1 0 0.709593 0.704612 0.000305176 4.97034)" fill="#FF914C"/>
<rect width="9.3114" height="7.0536" transform="matrix(1 0 -0.70955 0.704655 13.7347 0)" fill="#FF914C"/>
<rect width="9.3114" height="7.1235" transform="matrix(1 0 0.709593 0.704612 8.7298 4.97034)" fill="#FF914C"/>
<rect width="9.3114" height="7.0536" transform="matrix(1 0 -0.70955 0.704655 24.7919 0)" fill="#FF914C"/>
<rect width="9.3114" height="7.1235" transform="matrix(1 0 0.709593 0.704612 19.787 4.97034)" fill="#FF914C"/>
<rect width="9.3114" height="7.0536" transform="matrix(1 0 -0.70955 0.704655 35.9656 0)" fill="#FF914C"/>
<rect width="9.3114" height="7.1235" transform="matrix(1 0 0.709593 0.704612 30.9608 4.97034)" fill="#FF914C"/>
<rect width="34.9178" height="7.0536" transform="matrix(1 0 -0.70955 0.704655 47.0229 0)" fill="#FF914C"/>
<rect width="34.9178" height="7.1235" transform="matrix(1 0 0.709593 0.704612 42.0181 4.97034)" fill="#FF914C"/>
</svg>
